<svg width="17" height="17" viewBox="0 0 17 17" fill="none" xmlns="http://www.w3.org/2000/svg">
<path d="M11.2308 4.99123C11.2308 6.44845 10.019 7.64912 8.50004 7.64912C6.98106 7.64912 5.76927 6.44845 5.76927 4.99123C5.76927 3.53401 6.98106 2.33333 8.50004 2.33333C10.019 2.33333 11.2308 3.53401 11.2308 4.99123ZM7.42332 9.35088C7.42345 9.35088 7.42357 9.35088 7.4237 9.35088H9.57638C9.57651 9.35088 9.57664 9.35088 9.57677 9.35088C10.3996 9.35194 11.1861 9.672 11.7645 10.2374C12.3427 10.8025 12.6657 11.5661 12.6667 12.3603V14.4649C12.6667 14.5147 12.6466 14.5648 12.6069 14.6036C12.5669 14.6427 12.5102 14.6667 12.4488 14.6667H4.55132C4.48988 14.6667 4.4332 14.6427 4.39316 14.6036C4.3535 14.5648 4.33337 14.5147 4.33337 14.4649V12.36C4.33443 11.5659 4.65749 10.8024 5.23554 10.2374C5.81396 9.672 6.60052 9.35194 7.42332 9.35088Z" fill="#9CA3AF" stroke="#9CA3AF"/>
</svg>
