<svg width="20" height="21" viewBox="0 0 20 21" fill="none" xmlns="http://www.w3.org/2000/svg">
<path d="M7.78919 16.3333C7.56991 16.3333 7.35557 16.2649 7.17326 16.1369C6.99095 16.0088 6.84885 15.8269 6.76495 15.614C6.68104 15.4011 6.65908 15.1668 6.70184 14.9408C6.74461 14.7148 6.85018 14.5072 7.00522 14.3443L10.6568 10.5071L7.00522 6.67003C6.89931 6.56254 6.81483 6.43396 6.75671 6.2918C6.6986 6.14964 6.66801 5.99674 6.66673 5.84202C6.66545 5.6873 6.69351 5.53386 6.74926 5.39066C6.80502 5.24745 6.88736 5.11735 6.99147 5.00795C7.09559 4.89854 7.21939 4.81202 7.35567 4.75343C7.49195 4.69484 7.63797 4.66536 7.7852 4.6667C7.93244 4.66804 8.07795 4.70019 8.21323 4.76126C8.34852 4.82233 8.47088 4.9111 8.57317 5.02239L13.0087 9.68333C13.2166 9.90184 13.3334 10.1982 13.3334 10.5071C13.3334 10.8161 13.2166 11.1125 13.0087 11.331L8.57317 15.9919C8.36526 16.2104 8.08326 16.3333 7.78919 16.3333Z" fill="#9CA3AF"/>
</svg>
