<svg width="20" height="21" viewBox="0 0 20 21" fill="none" xmlns="http://www.w3.org/2000/svg">
<path d="M18.0991 9.91073L16.4304 8.24404L10.5899 2.41065C10.4334 2.25442 10.2213 2.16666 10 2.16666C9.77878 2.16666 9.5666 2.25442 9.41013 2.41065L3.56962 8.24404L1.9009 9.91073C1.74892 10.0679 1.66482 10.2784 1.66672 10.4969C1.66862 10.7154 1.75637 10.9244 1.91107 11.0789C2.06576 11.2334 2.27503 11.3211 2.4938 11.323C2.71256 11.3249 2.92332 11.2409 3.08068 11.0891L3.32515 10.8449V17.1666C3.32515 17.6087 3.50096 18.0326 3.81391 18.3452C4.12685 18.6577 4.5513 18.8333 4.99387 18.8333H7.49695C7.71823 18.8333 7.93045 18.7455 8.08693 18.5892C8.2434 18.433 8.3313 18.221 8.3313 18V14.6666C8.3313 14.4456 8.41921 14.2336 8.57568 14.0774C8.73215 13.9211 8.94438 13.8333 9.16566 13.8333H10.8344C11.0557 13.8333 11.2679 13.9211 11.4244 14.0774C11.5808 14.2336 11.6687 14.4456 11.6687 14.6666V18C11.6687 18.221 11.7566 18.433 11.9131 18.5892C12.0696 18.7455 12.2818 18.8333 12.5031 18.8333H15.0062C15.4487 18.8333 15.8732 18.6577 16.1861 18.3452C16.4991 18.0326 16.6749 17.6087 16.6749 17.1666V10.8449L16.9194 11.0891C17.0767 11.2409 17.2875 11.3249 17.5062 11.323C17.725 11.3211 17.9343 11.2334 18.089 11.0789C18.2437 10.9244 18.3314 10.7154 18.3333 10.4969C18.3352 10.2784 18.2511 10.0679 18.0991 9.91073Z" fill="#9CA3AF"/>
</svg>