<svg width="11" height="15" viewBox="0 0 11 15" fill="none" xmlns="http://www.w3.org/2000/svg">
<path d="M8.23081 3.99123C8.23081 5.44845 7.01902 6.64912 5.50004 6.64912C3.98106 6.64912 2.76927 5.44845 2.76927 3.99123C2.76927 2.53401 3.98106 1.33333 5.50004 1.33333C7.01902 1.33333 8.23081 2.53401 8.23081 3.99123ZM4.42332 8.35088C4.42345 8.35088 4.42357 8.35088 4.4237 8.35088H6.57638C6.57651 8.35088 6.57664 8.35088 6.57677 8.35088C7.39956 8.35194 8.18612 8.672 8.76454 9.23737C9.34266 9.80245 9.66574 10.5661 9.66671 11.3603V13.4649C9.66671 13.5147 9.64658 13.5648 9.60693 13.6036C9.56689 13.6427 9.5102 13.6667 9.44876 13.6667H1.55132C1.48988 13.6667 1.4332 13.6427 1.39316 13.6036C1.3535 13.5648 1.33337 13.5147 1.33337 13.4649V11.36C1.33443 10.5659 1.65749 9.80238 2.23554 9.23737C2.81396 8.672 3.60052 8.35194 4.42332 8.35088Z" fill="#9CA3AF" stroke="#9CA3AF"/>
</svg>
