<svg width="13" height="13" viewBox="0 0 13 13" fill="none" xmlns="http://www.w3.org/2000/svg">
<mask id="path-1-inside-1_106_10" fill="white">
<path d="M7.21314 6.50614L9.85964 3.85964C9.9074 3.81352 9.94549 3.75835 9.97169 3.69735C9.9979 3.63634 10.0117 3.57073 10.0123 3.50434C10.0128 3.43796 10.0002 3.37212 9.97506 3.31067C9.94991 3.24922 9.91279 3.19339 9.86584 3.14645C9.81889 3.0995 9.76307 3.06237 9.70162 3.03723C9.64017 3.01209 9.57433 2.99944 9.50794 3.00002C9.44155 3.0006 9.37594 3.01439 9.31494 3.04059C9.25394 3.0668 9.19877 3.10489 9.15264 3.15264L6.50614 5.79914L3.85964 3.15264C3.76534 3.06157 3.63904 3.01117 3.50794 3.01231C3.37685 3.01345 3.25144 3.06603 3.15873 3.15873C3.06603 3.25144 3.01345 3.37685 3.01231 3.50794C3.01117 3.63904 3.06157 3.76534 3.15264 3.85964L5.79914 6.50614L3.15264 9.15264C3.10489 9.19877 3.0668 9.25394 3.04059 9.31494C3.01439 9.37594 3.0006 9.44155 3.00002 9.50794C2.99944 9.57433 3.01209 9.64017 3.03723 9.70162C3.06237 9.76307 3.0995 9.81889 3.14645 9.86584C3.19339 9.91279 3.24922 9.94991 3.31067 9.97506C3.37212 10.0002 3.43796 10.0128 3.50434 10.0123C3.57073 10.0117 3.63634 9.9979 3.69735 9.97169C3.75835 9.94549 3.81352 9.9074 3.85964 9.85964L6.50614 7.21314L9.15264 9.85964C9.24694 9.95072 9.37325 10.0011 9.50434 9.99998C9.63544 9.99884 9.76085 9.94626 9.85355 9.85355C9.94626 9.76085 9.99884 9.63544 9.99998 9.50434C10.0011 9.37325 9.95072 9.24694 9.85964 9.15264L7.21314 6.50614Z"/>
</mask>
<path d="M7.21314 6.50614L9.85964 3.85964C9.9074 3.81352 9.94549 3.75835 9.97169 3.69735C9.9979 3.63634 10.0117 3.57073 10.0123 3.50434C10.0128 3.43796 10.0002 3.37212 9.97506 3.31067C9.94991 3.24922 9.91279 3.19339 9.86584 3.14645C9.81889 3.0995 9.76307 3.06237 9.70162 3.03723C9.64017 3.01209 9.57433 2.99944 9.50794 3.00002C9.44155 3.0006 9.37594 3.01439 9.31494 3.04059C9.25394 3.0668 9.19877 3.10489 9.15264 3.15264L6.50614 5.79914L3.85964 3.15264C3.76534 3.06157 3.63904 3.01117 3.50794 3.01231C3.37685 3.01345 3.25144 3.06603 3.15873 3.15873C3.06603 3.25144 3.01345 3.37685 3.01231 3.50794C3.01117 3.63904 3.06157 3.76534 3.15264 3.85964L5.79914 6.50614L3.15264 9.15264C3.10489 9.19877 3.0668 9.25394 3.04059 9.31494C3.01439 9.37594 3.0006 9.44155 3.00002 9.50794C2.99944 9.57433 3.01209 9.64017 3.03723 9.70162C3.06237 9.76307 3.0995 9.81889 3.14645 9.86584C3.19339 9.91279 3.24922 9.94991 3.31067 9.97506C3.37212 10.0002 3.43796 10.0128 3.50434 10.0123C3.57073 10.0117 3.63634 9.9979 3.69735 9.97169C3.75835 9.94549 3.81352 9.9074 3.85964 9.85964L6.50614 7.21314L9.15264 9.85964C9.24694 9.95072 9.37325 10.0011 9.50434 9.99998C9.63544 9.99884 9.76085 9.94626 9.85355 9.85355C9.94626 9.76085 9.99884 9.63544 9.99998 9.50434C10.0011 9.37325 9.95072 9.24694 9.85964 9.15264L7.21314 6.50614Z" fill="#111928"/>
<path d="M7.21314 6.50614L6.50604 5.79904L5.79893 6.50614L6.50604 7.21325L7.21314 6.50614ZM9.85964 3.85964L9.16493 3.14036L9.15868 3.14639L9.15254 3.15254L9.85964 3.85964ZM9.15264 3.15264L9.85975 3.85975L9.8659 3.85361L9.87193 3.84736L9.15264 3.15264ZM6.50614 5.79914L5.79904 6.50625L6.50614 7.21336L7.21325 6.50625L6.50614 5.79914ZM3.85964 3.15264L4.56675 2.44554L4.56061 2.43939L4.55436 2.43336L3.85964 3.15264ZM3.15264 3.85964L2.43336 4.55436L2.43939 4.56061L2.44554 4.56675L3.15264 3.85964ZM5.79914 6.50614L6.50625 7.21325L7.21336 6.50614L6.50625 5.79904L5.79914 6.50614ZM3.15264 9.15264L3.84736 9.87193L3.85361 9.8659L3.85975 9.85975L3.15264 9.15264ZM3.85964 9.85964L3.15254 9.15254L3.14639 9.15868L3.14036 9.16493L3.85964 9.85964ZM6.50614 7.21314L7.21325 6.50604L6.50614 5.79893L5.79904 6.50604L6.50614 7.21314ZM9.15264 9.85964L8.44554 10.5668L8.45168 10.5729L8.45793 10.5789L9.15264 9.85964ZM9.85964 9.15264L10.5789 8.45793L10.5729 8.45168L10.5668 8.44554L9.85964 9.15264ZM7.92025 7.21325L10.5668 4.56675L9.15254 3.15254L6.50604 5.79904L7.92025 7.21325ZM10.5544 4.57893C10.6976 4.44056 10.8119 4.27504 10.8905 4.09204L9.05288 3.30265C9.07908 3.24166 9.11717 3.18648 9.16493 3.14036L10.5544 4.57893ZM10.8905 4.09204C10.9691 3.90904 11.0105 3.71221 11.0122 3.51303L9.01231 3.49566C9.01288 3.42926 9.02668 3.36365 9.05288 3.30265L10.8905 4.09204ZM11.0122 3.51303C11.014 3.31387 10.976 3.11635 10.9006 2.932L9.04952 3.68933C9.02438 3.62788 9.01173 3.56204 9.01231 3.49566L11.0122 3.51303ZM10.9006 2.932C10.8252 2.74765 10.7138 2.58018 10.5729 2.43934L9.15873 3.85355C9.11179 3.80661 9.07466 3.75078 9.04952 3.68933L10.9006 2.932ZM10.5729 2.43934C10.4321 2.2985 10.2646 2.18712 10.0803 2.1117L9.32295 3.96277C9.26151 3.93763 9.20568 3.9005 9.15873 3.85355L10.5729 2.43934ZM10.0803 2.1117C9.89594 2.03628 9.69842 1.99833 9.49925 2.00006L9.51663 3.99998C9.45024 4.00056 9.3844 3.98791 9.32295 3.96277L10.0803 2.1117ZM9.49925 2.00006C9.30009 2.00179 9.10326 2.04317 8.92025 2.12178L9.70963 3.95941C9.64863 3.98561 9.58302 3.9994 9.51663 3.99998L9.49925 2.00006ZM8.92025 2.12178C8.73725 2.20039 8.57173 2.31467 8.43336 2.45793L9.87193 3.84736C9.82581 3.89511 9.77063 3.9332 9.70963 3.95941L8.92025 2.12178ZM8.44554 2.44554L5.79904 5.09204L7.21325 6.50625L9.85975 3.85975L8.44554 2.44554ZM7.21325 5.09204L4.56675 2.44554L3.15254 3.85975L5.79904 6.50625L7.21325 5.09204ZM4.55436 2.43336C4.27145 2.16012 3.89255 2.00893 3.49925 2.01234L3.51663 4.01227C3.38553 4.01341 3.25923 3.96301 3.16493 3.87193L4.55436 2.43336ZM3.49925 2.01234C3.10596 2.01576 2.72974 2.17352 2.45163 2.45163L3.86584 3.86584C3.77314 3.95855 3.64773 4.01113 3.51663 4.01227L3.49925 2.01234ZM2.45163 2.45163C2.17352 2.72974 2.01576 3.10596 2.01234 3.49925L4.01227 3.51663C4.01113 3.64773 3.95855 3.77314 3.86584 3.86584L2.45163 2.45163ZM2.01234 3.49925C2.00893 3.89255 2.16012 4.27145 2.43336 4.55436L3.87193 3.16493C3.96301 3.25923 4.01341 3.38553 4.01227 3.51663L2.01234 3.49925ZM2.44554 4.56675L5.09204 7.21325L6.50625 5.79904L3.85975 3.15254L2.44554 4.56675ZM5.09204 5.79904L2.44554 8.44554L3.85975 9.85975L6.50625 7.21325L5.09204 5.79904ZM2.45793 8.43336C2.31467 8.57173 2.20039 8.73725 2.12178 8.92025L3.95941 9.70963C3.9332 9.77063 3.89511 9.82581 3.84736 9.87193L2.45793 8.43336ZM2.12178 8.92025C2.04317 9.10326 2.00179 9.30009 2.00006 9.49925L3.99998 9.51663C3.9994 9.58302 3.98561 9.64863 3.95941 9.70963L2.12178 8.92025ZM2.00006 9.49925C1.99833 9.69842 2.03628 9.89594 2.1117 10.0803L3.96277 9.32295C3.98791 9.3844 4.00056 9.45024 3.99998 9.51663L2.00006 9.49925ZM2.1117 10.0803C2.18712 10.2646 2.2985 10.4321 2.43934 10.5729L3.85355 9.15873C3.9005 9.20568 3.93763 9.26151 3.96277 9.32295L2.1117 10.0803ZM2.43934 10.5729C2.58018 10.7138 2.74765 10.8252 2.932 10.9006L3.68933 9.04952C3.75078 9.07466 3.80661 9.11179 3.85355 9.15873L2.43934 10.5729ZM2.932 10.9006C3.11635 10.976 3.31387 11.014 3.51303 11.0122L3.49566 9.01231C3.56204 9.01173 3.62788 9.02438 3.68933 9.04952L2.932 10.9006ZM3.51303 11.0122C3.71221 11.0105 3.90904 10.9691 4.09204 10.8905L3.30265 9.05288C3.36365 9.02668 3.42926 9.01288 3.49566 9.01231L3.51303 11.0122ZM4.09204 10.8905C4.27504 10.8119 4.44056 10.6976 4.57893 10.5544L3.14036 9.16493C3.18648 9.11717 3.24166 9.07908 3.30265 9.05288L4.09204 10.8905ZM4.56675 10.5668L7.21325 7.92025L5.79904 6.50604L3.15254 9.15254L4.56675 10.5668ZM5.79904 7.92025L8.44554 10.5668L9.85975 9.15254L7.21325 6.50604L5.79904 7.92025ZM8.45793 10.5789C8.74084 10.8522 9.11974 11.0034 9.51303 10.9999L9.49566 9.00002C9.62675 8.99888 9.75305 9.04928 9.84736 9.14036L8.45793 10.5789ZM9.51303 10.9999C9.90633 10.9965 10.2825 10.8388 10.5607 10.5607L9.14645 9.14645C9.23915 9.05374 9.36455 9.00116 9.49566 9.00002L9.51303 10.9999ZM10.5607 10.5607C10.8388 10.2825 10.9965 9.90633 10.9999 9.51303L9.00002 9.49566C9.00116 9.36455 9.05374 9.23915 9.14645 9.14645L10.5607 10.5607ZM10.9999 9.51303C11.0034 9.11974 10.8522 8.74084 10.5789 8.45793L9.14036 9.84736C9.04928 9.75305 8.99888 9.62675 9.00002 9.49566L10.9999 9.51303ZM10.5668 8.44554L7.92025 5.79904L6.50604 7.21325L9.15254 9.85975L10.5668 8.44554Z" fill="#9CA3AF" mask="url(#path-1-inside-1_106_10)"/>
</svg>
